<?xml version="1.0" standalone="no"?>
<svg xmlns:xlink="http://www.w3.org/1999/xlink" xmlns="http://www.w3.org/2000/svg" id="graph-2" class="svg-graph" focusable="true" tabindex="1" preserveAspectRatio="xMidYMid meet" viewBox="-30 -30 2026 1728" style="transform-origin: 0px 0px 0px; transform: matrix(1.20933, 0, 0, 1.20933, -95.8715, -71.1339); height: calc(100% - 109px); width: calc(100% - 40px); opacity: 1; z-index: 1; pointer-events: auto;">
<g id="graph0" class="graph" transform="scale(1 1) rotate(0) translate(4 1694)">
<polygon fill="white" stroke="none" points="-4,4 -4,-1694 1991.56,-1694 1991.56,4 -4,4"/>
<g id="clust1" class="cluster">

<path fill="none" stroke="black" d="M150.59,-8C150.59,-8 1967.56,-8 1967.56,-8 1973.56,-8 1979.56,-14 1979.56,-20 1979.56,-20 1979.56,-1670 1979.56,-1670 1979.56,-1676 1973.56,-1682 1967.56,-1682 1967.56,-1682 150.59,-1682 150.59,-1682 144.59,-1682 138.59,-1676 138.59,-1670 138.59,-1670 138.59,-20 138.59,-20 138.59,-14 144.59,-8 150.59,-8" style="stroke: rgb(248, 248, 242); fill: rgb(128, 128, 128); stroke-width: 4px;"/>
<text xml:space="preserve" text-anchor="middle" x="1059.08" y="-1601.262873840332" font-family="Arial" font-size="87.87425231933594px" data-custom="/clean_code" style="fill: rgb(248, 248, 242); font-weight: 500;">/clean_code</text>
<g transform="translate(1900.9772542317708, -1662)"><rect id="clust1:magnet" width="58.58283487955729" height="58.58283487955729" fill="transparent"/></g><g transform="translate(1822.3944193522136, -1662)"><rect id="clust1:trash" width="58.58283487955729" height="58.58283487955729" fill="transparent"/></g><g transform="translate(1900.8457153320312, -1669.892333984375)"><rect id="clust1:magnet" width="58.71437377929688" height="58.71437377929688" fill="transparent"/></g><g transform="translate(1822.1313415527343, -1669.892333984375)"><rect id="clust1:trash" width="58.71437377929688" height="58.71437377929688" fill="transparent"/></g></g>
<!-- 1 -->
<g id="1" class="node clickable expanded children">

<path fill="lightgrey" stroke="none" d="M1291.19,-1595.2C1291.19,-1595.2 890.97,-1595.2 890.97,-1595.2 884.97,-1595.2 878.97,-1589.2 878.97,-1583.2 878.97,-1583.2 878.97,-884.8 878.97,-884.8 878.97,-878.8 884.97,-872.8 890.97,-872.8 890.97,-872.8 1291.19,-872.8 1291.19,-872.8 1297.19,-872.8 1303.19,-878.8 1303.19,-884.8 1303.19,-884.8 1303.19,-1583.2 1303.19,-1583.2 1303.19,-1589.2 1297.19,-1595.2 1291.19,-1595.2" style="stroke: rgb(248, 248, 242); fill: rgb(181, 191, 199); stroke-width: 2.66667px;"/>
<g id="1_44" class="title">
<text xml:space="preserve" text-anchor="start" x="1029.7" y="-1555.6" font-family="Arial" font-size="24px" fill="black" style="font-weight: 600;">backend.py</text>

</g>
<g id="1:8_6" class="cell type clickable children expanded">
<polygon fill="lightgray" stroke="none" points="894.97,-894.8 894.97,-1522.4 1287.19,-1522.4 1287.19,-894.8 894.97,-894.8" style="fill: rgb(230, 230, 230);"/>
<text xml:space="preserve" text-anchor="start" x="969.04" y="-1486.8" font-family="Arial" font-weight="bold" font-size="24.00" style="fill: rgb(240, 128, 128);">   C</text>
<text xml:space="preserve" text-anchor="start" x="1026.38" y="-1486.8" font-family="Arial" font-size="24.00">    Backend    </text>
<g id="1:11_8" class="cell method clickable expanded">
<path fill="none" stroke="black" d="M915.97,-1421.8C915.97,-1421.8 1266.19,-1421.8 1266.19,-1421.8 1272.19,-1421.8 1278.19,-1427.8 1278.19,-1433.8 1278.19,-1433.8 1278.19,-1452.6 1278.19,-1452.6 1278.19,-1458.6 1272.19,-1464.6 1266.19,-1464.6 1266.19,-1464.6 915.97,-1464.6 915.97,-1464.6 909.97,-1464.6 903.97,-1458.6 903.97,-1452.6 903.97,-1452.6 903.97,-1433.8 903.97,-1433.8 903.97,-1427.8 909.97,-1421.8 915.97,-1421.8" style="stroke-width: 2px; fill: rgb(228, 214, 186);"/>
<text xml:space="preserve" text-anchor="start" x="910.97" y="-1436" font-family="Arial" font-size="24.00">    __init__    </text>

</g>
<g id="1:166_8" class="cell method clickable expanded">
<path fill="none" stroke="black" d="M915.97,-1371C915.97,-1371 1266.19,-1371 1266.19,-1371 1272.19,-1371 1278.19,-1377 1278.19,-1383 1278.19,-1383 1278.19,-1401.8 1278.19,-1401.8 1278.19,-1407.8 1272.19,-1413.8 1266.19,-1413.8 1266.19,-1413.8 915.97,-1413.8 915.97,-1413.8 909.97,-1413.8 903.97,-1407.8 903.97,-1401.8 903.97,-1401.8 903.97,-1383 903.97,-1383 903.97,-1377 909.97,-1371 915.97,-1371" style="stroke-width: 2px; fill: rgb(228, 214, 186);"/>
<text xml:space="preserve" text-anchor="start" x="910.97" y="-1385.2" font-family="Arial" font-size="24.00">    _download_worker    </text>

</g>
<g id="1:189_8" class="cell method clickable expanded">
<path fill="none" stroke="black" d="M915.97,-1320.2C915.97,-1320.2 1266.19,-1320.2 1266.19,-1320.2 1272.19,-1320.2 1278.19,-1326.2 1278.19,-1332.2 1278.19,-1332.2 1278.19,-1351 1278.19,-1351 1278.19,-1357 1272.19,-1363 1266.19,-1363 1266.19,-1363 915.97,-1363 915.97,-1363 909.97,-1363 903.97,-1357 903.97,-1351 903.97,-1351 903.97,-1332.2 903.97,-1332.2 903.97,-1326.2 909.97,-1320.2 915.97,-1320.2" style="stroke-width: 2px; fill: rgb(228, 214, 186);"/>
<text xml:space="preserve" text-anchor="start" x="910.97" y="-1334.4" font-family="Arial" font-size="24.00">    _on_download_complete    </text>

</g>
<g id="1:69_8" class="cell method clickable expanded">
<path fill="none" stroke="black" d="M915.97,-1269.4C915.97,-1269.4 1266.19,-1269.4 1266.19,-1269.4 1272.19,-1269.4 1278.19,-1275.4 1278.19,-1281.4 1278.19,-1281.4 1278.19,-1300.2 1278.19,-1300.2 1278.19,-1306.2 1272.19,-1312.2 1266.19,-1312.2 1266.19,-1312.2 915.97,-1312.2 915.97,-1312.2 909.97,-1312.2 903.97,-1306.2 903.97,-1300.2 903.97,-1300.2 903.97,-1281.4 903.97,-1281.4 903.97,-1275.4 909.97,-1269.4 915.97,-1269.4" style="stroke-width: 2px; fill: rgb(228, 214, 186);"/>
<text xml:space="preserve" text-anchor="start" x="910.97" y="-1283.6" font-family="Arial" font-size="24.00">    _populate_resolutions    </text>

</g>
<g id="1:196_8" class="cell method clickable expanded">
<path fill="none" stroke="black" d="M915.97,-1218.6C915.97,-1218.6 1266.19,-1218.6 1266.19,-1218.6 1272.19,-1218.6 1278.19,-1224.6 1278.19,-1230.6 1278.19,-1230.6 1278.19,-1249.4 1278.19,-1249.4 1278.19,-1255.4 1272.19,-1261.4 1266.19,-1261.4 1266.19,-1261.4 915.97,-1261.4 915.97,-1261.4 909.97,-1261.4 903.97,-1255.4 903.97,-1249.4 903.97,-1249.4 903.97,-1230.6 903.97,-1230.6 903.97,-1224.6 909.97,-1218.6 915.97,-1218.6" style="stroke-width: 2px; fill: rgb(228, 214, 186);"/>
<text xml:space="preserve" text-anchor="start" x="910.97" y="-1232.8" font-family="Arial" font-size="24.00">    _progress_callback    </text>

</g>
<g id="1:239_8" class="cell method clickable expanded">
<path fill="none" stroke="black" d="M915.97,-1167.8C915.97,-1167.8 1266.19,-1167.8 1266.19,-1167.8 1272.19,-1167.8 1278.19,-1173.8 1278.19,-1179.8 1278.19,-1179.8 1278.19,-1198.6 1278.19,-1198.6 1278.19,-1204.6 1272.19,-1210.6 1266.19,-1210.6 1266.19,-1210.6 915.97,-1210.6 915.97,-1210.6 909.97,-1210.6 903.97,-1204.6 903.97,-1198.6 903.97,-1198.6 903.97,-1179.8 903.97,-1179.8 903.97,-1173.8 909.97,-1167.8 915.97,-1167.8" style="stroke-width: 2px; fill: rgb(228, 214, 186);"/>
<text xml:space="preserve" text-anchor="start" x="910.97" y="-1182" font-family="Arial" font-size="24.00">    _update_progress_ui    </text>

</g>
<g id="1:17_8" class="cell method clickable expanded">
<path fill="none" stroke="black" d="M915.97,-1117C915.97,-1117 1266.19,-1117 1266.19,-1117 1272.19,-1117 1278.19,-1123 1278.19,-1129 1278.19,-1129 1278.19,-1147.8 1278.19,-1147.8 1278.19,-1153.8 1272.19,-1159.8 1266.19,-1159.8 1266.19,-1159.8 915.97,-1159.8 915.97,-1159.8 909.97,-1159.8 903.97,-1153.8 903.97,-1147.8 903.97,-1147.8 903.97,-1129 903.97,-1129 903.97,-1123 909.97,-1117 915.97,-1117" style="stroke-width: 2px; fill: rgb(228, 214, 186);"/>
<text xml:space="preserve" text-anchor="start" x="910.97" y="-1131.2" font-family="Arial" font-size="24.00">    fetch_video    </text>

</g>
<g id="1:112_8" class="cell method clickable expanded">
<path fill="none" stroke="black" d="M915.97,-1066.2C915.97,-1066.2 1266.19,-1066.2 1266.19,-1066.2 1272.19,-1066.2 1278.19,-1072.2 1278.19,-1078.2 1278.19,-1078.2 1278.19,-1097 1278.19,-1097 1278.19,-1103 1272.19,-1109 1266.19,-1109 1266.19,-1109 915.97,-1109 915.97,-1109 909.97,-1109 903.97,-1103 903.97,-1097 903.97,-1097 903.97,-1078.2 903.97,-1078.2 903.97,-1072.2 909.97,-1066.2 915.97,-1066.2" style="stroke-width: 2px; fill: rgb(228, 214, 186);"/>
<text xml:space="preserve" text-anchor="start" x="910.97" y="-1080.4" font-family="Arial" font-size="24.00">    on_codec_selected    </text>

</g>
<g id="1:54_8" class="cell method clickable expanded">
<path fill="none" stroke="black" d="M915.97,-1015.4C915.97,-1015.4 1266.19,-1015.4 1266.19,-1015.4 1272.19,-1015.4 1278.19,-1021.4 1278.19,-1027.4 1278.19,-1027.4 1278.19,-1046.2 1278.19,-1046.2 1278.19,-1052.2 1272.19,-1058.2 1266.19,-1058.2 1266.19,-1058.2 915.97,-1058.2 915.97,-1058.2 909.97,-1058.2 903.97,-1052.2 903.97,-1046.2 903.97,-1046.2 903.97,-1027.4 903.97,-1027.4 903.97,-1021.4 909.97,-1015.4 915.97,-1015.4" style="stroke-width: 2px; fill: rgb(228, 214, 186);"/>
<text xml:space="preserve" text-anchor="start" x="910.97" y="-1029.6" font-family="Arial" font-size="24.00">    on_format_selected    </text>

</g>
<g id="1:86_8" class="cell method clickable expanded">
<path fill="none" stroke="black" d="M915.97,-964.6C915.97,-964.6 1266.19,-964.6 1266.19,-964.6 1272.19,-964.6 1278.19,-970.6 1278.19,-976.6 1278.19,-976.6 1278.19,-995.4 1278.19,-995.4 1278.19,-1001.4 1272.19,-1007.4 1266.19,-1007.4 1266.19,-1007.4 915.97,-1007.4 915.97,-1007.4 909.97,-1007.4 903.97,-1001.4 903.97,-995.4 903.97,-995.4 903.97,-976.6 903.97,-976.6 903.97,-970.6 909.97,-964.6 915.97,-964.6" style="stroke-width: 2px; fill: rgb(228, 214, 186);"/>
<text xml:space="preserve" text-anchor="start" x="910.97" y="-978.8" font-family="Arial" font-size="24.00">    on_resolution_selected    </text>

</g>
<g id="1:116_8" class="cell method clickable expanded">
<path fill="none" stroke="black" d="M915.97,-913.8C915.97,-913.8 1266.19,-913.8 1266.19,-913.8 1272.19,-913.8 1278.19,-919.8 1278.19,-925.8 1278.19,-925.8 1278.19,-944.6 1278.19,-944.6 1278.19,-950.6 1272.19,-956.6 1266.19,-956.6 1266.19,-956.6 915.97,-956.6 915.97,-956.6 909.97,-956.6 903.97,-950.6 903.97,-944.6 903.97,-944.6 903.97,-925.8 903.97,-925.8 903.97,-919.8 909.97,-913.8 915.97,-913.8" style="stroke-width: 2px; fill: rgb(228, 214, 186);"/>
<text xml:space="preserve" text-anchor="start" x="910.97" y="-928" font-family="Arial" font-size="24.00">    start_download    </text>

</g>
<polygon fill="none" stroke="black" points="894.97,-894.8 894.97,-1522.4 1287.19,-1522.4 1287.19,-894.8 894.97,-894.8" style="stroke-width: 2px;"/>

<g transform="translate(1257.18994140625, -1506.4000244140625)"><rect id="1:8_6:chevron-up" width="20" height="20" fill="transparent"/></g><g transform="translate(1257.18994140625, -1506.4000244140625)"><rect id="1:8_6:chevron-up" width="20" height="20" fill="transparent"/></g></g>
<g transform="translate(1267.18994140625, -1575.199951171875)"><rect id="1:chevron-up" width="20" height="20" fill="transparent"/></g><g transform="translate(928.969970703125, -1575.199951171875)"><rect id="1:trash" width="20" height="20" fill="transparent"/></g><g transform="translate(1267.18994140625, -1575.199951171875)"><rect id="1:chevron-up" width="20" height="20" fill="transparent"/></g><g transform="translate(928.969970703125, -1575.199951171875)"><rect id="1:trash" width="20" height="20" fill="transparent"/></g></g>
<!-- 1&#45;&gt;1 -->
<g id="1:166_8 -&gt; 1:189_8" class="edge" edge-from="1:166_8" edge-to="1:189_8">

<path fill="none" stroke="black" stroke-width="2" d="M904.42,-1397.23C806.58,-1395.8 718.04,-1387.53 718.04,-1367 718.04,-1349.54 782.1,-1340.94 861.45,-1337.89" style="stroke: rgb(73, 141, 158); stroke-width: 2px;"/>
<polygon fill="black" stroke="black" stroke-width="2" points="861.77,-1351.88 901.39,-1336.85 861.04,-1323.89 861.77,-1351.88" style="stroke: rgb(73, 141, 158); fill: rgb(73, 141, 158);"/>
<text xml:space="preserve" text-anchor="middle" x="716.29" y="-1229.8" font-family="Times,serif" font-size="14.00"> </text>
<path fill="none" stroke="black" stroke-width="2" d="M904.42,-1397.23C806.58,-1395.8 718.04,-1387.53 718.04,-1367 718.04,-1349.54 782.1,-1340.94 861.45,-1337.89" class="hover-path" style="stroke: rgba(0, 0, 0, 0); stroke-width: 15px;"/></g>
<!-- 1&#45;&gt;1 -->
<g id="1:166_8 -&gt; 1:196_8" class="edge" edge-from="1:166_8" edge-to="1:196_8">

<path fill="none" stroke="black" stroke-width="2" d="M904.42,-1393.9C806.58,-1387.54 718.04,-1367.04 718.04,-1316.2 718.04,-1272.91 782.25,-1251.61 861.72,-1242.32" style="stroke: rgb(73, 141, 158); stroke-width: 2px;"/>
<polygon fill="black" stroke="black" stroke-width="2" points="862.81,-1256.28 901.4,-1238.77 860.31,-1228.39 862.81,-1256.28" style="stroke: rgb(73, 141, 158); fill: rgb(73, 141, 158);"/>
<text xml:space="preserve" text-anchor="middle" x="716.29" y="-1229.8" font-family="Times,serif" font-size="14.00"> </text>
<path fill="none" stroke="black" stroke-width="2" d="M904.42,-1393.9C806.58,-1387.54 718.04,-1367.04 718.04,-1316.2 718.04,-1272.91 782.25,-1251.61 861.72,-1242.32" class="hover-path" style="stroke: rgba(0, 0, 0, 0); stroke-width: 15px;"/></g>
<!-- 1&#45;&gt;1 -->
<g id="1:116_8 -&gt; 1:166_8" class="edge" edge-from="1:116_8" edge-to="1:166_8">

<path fill="none" stroke="black" stroke-width="2" d="M904.42,-943.7C806.58,-964.85 718.04,-1022.03 718.04,-1163.8 718.04,-1285.22 782.98,-1344.59 863.09,-1372.42" style="stroke: rgb(73, 141, 158); stroke-width: 2px;"/>
<polygon fill="black" stroke="black" stroke-width="2" points="859.21,-1385.87 901.5,-1383.09 866.71,-1358.89 859.21,-1385.87" style="stroke: rgb(73, 141, 158); fill: rgb(73, 141, 158);"/>
<text xml:space="preserve" text-anchor="middle" x="716.29" y="-1229.8" font-family="Times,serif" font-size="14.00"> </text>
<path fill="none" stroke="black" stroke-width="2" d="M904.42,-943.7C806.58,-964.85 718.04,-1022.03 718.04,-1163.8 718.04,-1285.22 782.98,-1344.59 863.09,-1372.42" class="hover-path" style="stroke: rgba(0, 0, 0, 0); stroke-width: 15px;"/></g>
<!-- 1&#45;&gt;1 -->
<g id="1:54_8 -&gt; 1:69_8" class="edge" edge-from="1:54_8" edge-to="1:69_8">

<path fill="none" stroke="black" stroke-width="2" d="M904.42,-1038.63C806.58,-1049.92 718.04,-1082.65 718.04,-1163.8 718.04,-1232.98 782.39,-1266.97 862,-1282.49" style="stroke: rgb(73, 141, 158); stroke-width: 2px;"/>
<polygon fill="black" stroke="black" stroke-width="2" points="859.77,-1296.31 901.42,-1288.51 864,-1268.63 859.77,-1296.31" style="stroke: rgb(73, 141, 158); fill: rgb(73, 141, 158);"/>
<text xml:space="preserve" text-anchor="middle" x="716.29" y="-1229.8" font-family="Times,serif" font-size="14.00"> </text>
<path fill="none" stroke="black" stroke-width="2" d="M904.42,-1038.63C806.58,-1049.92 718.04,-1082.65 718.04,-1163.8 718.04,-1232.98 782.39,-1266.97 862,-1282.49" class="hover-path" style="stroke: rgba(0, 0, 0, 0); stroke-width: 15px;"/></g>
<!-- 1&#45;&gt;1 -->
<g id="1:196_8 -&gt; 1:239_8" class="edge" edge-from="1:196_8" edge-to="1:239_8">

<path fill="none" stroke="black" stroke-width="2" d="M904.42,-1244.83C806.58,-1243.4 718.04,-1235.13 718.04,-1214.6 718.04,-1197.14 782.1,-1188.54 861.45,-1185.49" style="stroke: rgb(73, 141, 158); stroke-width: 2px;"/>
<polygon fill="black" stroke="black" stroke-width="2" points="861.77,-1199.48 901.39,-1184.45 861.04,-1171.49 861.77,-1199.48" style="stroke: rgb(73, 141, 158); fill: rgb(73, 141, 158);"/>
<text xml:space="preserve" text-anchor="middle" x="716.29" y="-1229.8" font-family="Times,serif" font-size="14.00"> </text>
<path fill="none" stroke="black" stroke-width="2" d="M904.42,-1244.83C806.58,-1243.4 718.04,-1235.13 718.04,-1214.6 718.04,-1197.14 782.1,-1188.54 861.45,-1185.49" class="hover-path" style="stroke: rgba(0, 0, 0, 0); stroke-width: 15px;"/></g>
<!-- 3 -->
<g id="3" class="node clickable expanded children">

<path fill="lightgrey" stroke="none" d="M1900.13,-1595.8C1900.13,-1595.8 1562.13,-1595.8 1562.13,-1595.8 1556.13,-1595.8 1550.13,-1589.8 1550.13,-1583.8 1550.13,-1583.8 1550.13,-1190.2 1550.13,-1190.2 1550.13,-1184.2 1556.13,-1178.2 1562.13,-1178.2 1562.13,-1178.2 1900.13,-1178.2 1900.13,-1178.2 1906.13,-1178.2 1912.13,-1184.2 1912.13,-1190.2 1912.13,-1190.2 1912.13,-1583.8 1912.13,-1583.8 1912.13,-1589.8 1906.13,-1595.8 1900.13,-1595.8" style="stroke: rgb(248, 248, 242); fill: rgb(181, 191, 199); stroke-width: 2.66667px;"/>
<g id="3_45" class="title">
<text xml:space="preserve" text-anchor="start" x="1675.09" y="-1556.2" font-family="Arial" font-size="24px" fill="black" style="font-weight: 600;">handler.py</text>

</g>
<g id="3:6_6" class="cell type clickable children expanded">
<polygon fill="lightgray" stroke="none" points="1566.13,-1200.2 1566.13,-1523 1896.13,-1523 1896.13,-1200.2 1566.13,-1200.2" style="fill: rgb(230, 230, 230);"/>
<text xml:space="preserve" text-anchor="start" x="1583.07" y="-1487.4" font-family="Arial" font-weight="bold" font-size="24.00" style="fill: rgb(240, 128, 128);">   C</text>
<text xml:space="preserve" text-anchor="start" x="1640.41" y="-1487.4" font-family="Arial" font-size="24.00">    VideoHandler    </text>
<g id="3:9_8" class="cell method clickable expanded">
<path fill="none" stroke="black" d="M1587.13,-1422.4C1587.13,-1422.4 1875.13,-1422.4 1875.13,-1422.4 1881.13,-1422.4 1887.13,-1428.4 1887.13,-1434.4 1887.13,-1434.4 1887.13,-1453.2 1887.13,-1453.2 1887.13,-1459.2 1881.13,-1465.2 1875.13,-1465.2 1875.13,-1465.2 1587.13,-1465.2 1587.13,-1465.2 1581.13,-1465.2 1575.13,-1459.2 1575.13,-1453.2 1575.13,-1453.2 1575.13,-1434.4 1575.13,-1434.4 1575.13,-1428.4 1581.13,-1422.4 1587.13,-1422.4" style="stroke-width: 2px; fill: rgb(228, 214, 186);"/>
<text xml:space="preserve" text-anchor="start" x="1582.13" y="-1436.6" font-family="Arial" font-size="24.00">    __init__    </text>

</g>
<g id="3:28_8" class="cell method clickable children collapsed">
<path fill="none" stroke="black" d="M1587.13,-1371.6C1587.13,-1371.6 1875.13,-1371.6 1875.13,-1371.6 1881.13,-1371.6 1887.13,-1377.6 1887.13,-1383.6 1887.13,-1383.6 1887.13,-1402.4 1887.13,-1402.4 1887.13,-1408.4 1881.13,-1414.4 1875.13,-1414.4 1875.13,-1414.4 1587.13,-1414.4 1587.13,-1414.4 1581.13,-1414.4 1575.13,-1408.4 1575.13,-1402.4 1575.13,-1402.4 1575.13,-1383.6 1575.13,-1383.6 1575.13,-1377.6 1581.13,-1371.6 1587.13,-1371.6" style="stroke-width: 2px; fill: rgb(228, 214, 186);"/>
<text xml:space="preserve" text-anchor="start" x="1582.13" y="-1385.8" font-family="Arial" font-size="24.00">    _parse_formats    </text>

<g transform="translate(1857.1300048828125, -1408.4000244140625)"><rect id="3:28_8:chevron-down" width="20" height="20" fill="transparent"/></g><g transform="translate(1857.1300048828125, -1408.4000244140625)"><rect id="3:28_8:chevron-down" width="20" height="20" fill="transparent"/></g></g>
<g id="3:99_8" class="cell method clickable expanded">
<path fill="none" stroke="black" d="M1587.13,-1320.8C1587.13,-1320.8 1875.13,-1320.8 1875.13,-1320.8 1881.13,-1320.8 1887.13,-1326.8 1887.13,-1332.8 1887.13,-1332.8 1887.13,-1351.6 1887.13,-1351.6 1887.13,-1357.6 1881.13,-1363.6 1875.13,-1363.6 1875.13,-1363.6 1587.13,-1363.6 1587.13,-1363.6 1581.13,-1363.6 1575.13,-1357.6 1575.13,-1351.6 1575.13,-1351.6 1575.13,-1332.8 1575.13,-1332.8 1575.13,-1326.8 1581.13,-1320.8 1587.13,-1320.8" style="stroke-width: 2px; fill: rgb(228, 214, 186);"/>
<text xml:space="preserve" text-anchor="start" x="1582.13" y="-1335" font-family="Arial" font-size="24.00">    _progress_hook    </text>

</g>
<g id="3:16_8" class="cell method clickable expanded">
<path fill="none" stroke="black" d="M1587.13,-1270C1587.13,-1270 1875.13,-1270 1875.13,-1270 1881.13,-1270 1887.13,-1276 1887.13,-1282 1887.13,-1282 1887.13,-1300.8 1887.13,-1300.8 1887.13,-1306.8 1881.13,-1312.8 1875.13,-1312.8 1875.13,-1312.8 1587.13,-1312.8 1587.13,-1312.8 1581.13,-1312.8 1575.13,-1306.8 1575.13,-1300.8 1575.13,-1300.8 1575.13,-1282 1575.13,-1282 1575.13,-1276 1581.13,-1270 1587.13,-1270" style="stroke-width: 2px; fill: rgb(228, 214, 186);"/>
<text xml:space="preserve" text-anchor="start" x="1582.13" y="-1284.2" font-family="Arial" font-size="24.00">    fetch_metadata    </text>

</g>
<g id="3:60_8" class="cell method clickable expanded">
<path fill="none" stroke="black" d="M1587.13,-1219.2C1587.13,-1219.2 1875.13,-1219.2 1875.13,-1219.2 1881.13,-1219.2 1887.13,-1225.2 1887.13,-1231.2 1887.13,-1231.2 1887.13,-1250 1887.13,-1250 1887.13,-1256 1881.13,-1262 1875.13,-1262 1875.13,-1262 1587.13,-1262 1587.13,-1262 1581.13,-1262 1575.13,-1256 1575.13,-1250 1575.13,-1250 1575.13,-1231.2 1575.13,-1231.2 1575.13,-1225.2 1581.13,-1219.2 1587.13,-1219.2" style="stroke-width: 2px; fill: rgb(228, 214, 186);"/>
<text xml:space="preserve" text-anchor="start" x="1582.13" y="-1233.4" font-family="Arial" font-size="24.00">    start_download    </text>

</g>
<polygon fill="none" stroke="black" points="1566.13,-1200.2 1566.13,-1523 1896.13,-1523 1896.13,-1200.2 1566.13,-1200.2" style="stroke-width: 2px;"/>

<g transform="translate(1866.1300048828125, -1507)"><rect id="3:6_6:chevron-up" width="20" height="20" fill="transparent"/></g><g transform="translate(1866.1300048828125, -1507)"><rect id="3:6_6:chevron-up" width="20" height="20" fill="transparent"/></g></g>
<g transform="translate(1876.1300048828125, -1575.800048828125)"><rect id="3:chevron-up" width="20" height="20" fill="transparent"/></g><g transform="translate(1600.1300048828125, -1575.800048828125)"><rect id="3:trash" width="20" height="20" fill="transparent"/></g><g transform="translate(1876.1300048828125, -1575.800048828125)"><rect id="3:chevron-up" width="20" height="20" fill="transparent"/></g><g transform="translate(1600.1300048828125, -1575.800048828125)"><rect id="3:trash" width="20" height="20" fill="transparent"/></g></g>
<!-- 1&#45;&gt;3 -->
<g id="1:166_8 -&gt; 3:60_8" class="edge" edge-from="1:166_8" edge-to="3:60_8">

<path fill="none" stroke="black" stroke-width="2" d="M1279.19,-1392.4C1410.92,-1392.4 1425.01,-1271.2 1531.7,-1245.39" style="stroke: rgb(73, 141, 158); stroke-width: 2px;"/>
<polygon fill="black" stroke="black" stroke-width="2" points="1532.94,-1259.34 1571.12,-1240.94 1529.8,-1231.52 1532.94,-1259.34" style="stroke: rgb(73, 141, 158); fill: rgb(73, 141, 158);"/>
<text xml:space="preserve" text-anchor="middle" x="1412.94" y="-1334.3" font-family="Times,serif" font-size="14.00"> </text>
<path fill="none" stroke="black" stroke-width="2" d="M1279.19,-1392.4C1410.92,-1392.4 1425.01,-1271.2 1531.7,-1245.39" class="hover-path" style="stroke: rgba(0, 0, 0, 0); stroke-width: 15px;"/></g>
<!-- 1&#45;&gt;3 -->
<g id="1:17_8 -&gt; 3:16_8" class="edge" edge-from="1:17_8" edge-to="3:16_8">

<path fill="none" stroke="black" stroke-width="2" d="M1279.19,-1138.4C1411.14,-1138.4 1424.86,-1260.56 1531.65,-1286.57" style="stroke: rgb(73, 141, 158); stroke-width: 2px;"/>
<polygon fill="black" stroke="black" stroke-width="2" points="1529.79,-1300.45 1571.12,-1291.06 1532.96,-1272.63 1529.79,-1300.45" style="stroke: rgb(73, 141, 158); fill: rgb(73, 141, 158);"/>
<text xml:space="preserve" text-anchor="middle" x="1412.94" y="-1205.4" font-family="Times,serif" font-size="14.00"> </text>
<path fill="none" stroke="black" stroke-width="2" d="M1279.19,-1138.4C1411.14,-1138.4 1424.86,-1260.56 1531.65,-1286.57" class="hover-path" style="stroke: rgba(0, 0, 0, 0); stroke-width: 15px;"/></g>
<!-- 4 -->
<g id="4" class="node clickable expanded children">

<path fill="lightgrey" stroke="none" d="M1900.13,-980.2C1900.13,-980.2 1562.13,-980.2 1562.13,-980.2 1556.13,-980.2 1550.13,-974.2 1550.13,-968.2 1550.13,-968.2 1550.13,-823.8 1550.13,-823.8 1550.13,-817.8 1556.13,-811.8 1562.13,-811.8 1562.13,-811.8 1900.13,-811.8 1900.13,-811.8 1906.13,-811.8 1912.13,-817.8 1912.13,-823.8 1912.13,-823.8 1912.13,-968.2 1912.13,-968.2 1912.13,-974.2 1906.13,-980.2 1900.13,-980.2" style="stroke: rgb(248, 248, 242); fill: rgb(181, 191, 199); stroke-width: 2.66667px;"/>
<g id="4_46" class="title">
<text xml:space="preserve" text-anchor="start" x="1659.74" y="-940.6" font-family="Arial" font-size="24px" fill="black" style="font-weight: 600;">save_path.py</text>

</g>
<g id="4:5_4" class="cell function clickable expanded">
<path fill="none" stroke="black" d="M1578.13,-880.6C1578.13,-880.6 1884.13,-880.6 1884.13,-880.6 1890.13,-880.6 1896.13,-886.6 1896.13,-892.6 1896.13,-892.6 1896.13,-907.4 1896.13,-907.4 1896.13,-913.4 1890.13,-919.4 1884.13,-919.4 1884.13,-919.4 1578.13,-919.4 1578.13,-919.4 1572.13,-919.4 1566.13,-913.4 1566.13,-907.4 1566.13,-907.4 1566.13,-892.6 1566.13,-892.6 1566.13,-886.6 1572.13,-880.6 1578.13,-880.6" style="stroke-width: 2px; fill: rgb(238, 231, 212);"/>
<text xml:space="preserve" text-anchor="start" x="1571.13" y="-892.8" font-family="Arial" font-size="24.00">    get_stored_path    </text>

</g>
<g id="4:18_4" class="cell function clickable expanded">
<path fill="none" stroke="black" d="M1578.13,-833.8C1578.13,-833.8 1884.13,-833.8 1884.13,-833.8 1890.13,-833.8 1896.13,-839.8 1896.13,-845.8 1896.13,-845.8 1896.13,-860.6 1896.13,-860.6 1896.13,-866.6 1890.13,-872.6 1884.13,-872.6 1884.13,-872.6 1578.13,-872.6 1578.13,-872.6 1572.13,-872.6 1566.13,-866.6 1566.13,-860.6 1566.13,-860.6 1566.13,-845.8 1566.13,-845.8 1566.13,-839.8 1572.13,-833.8 1578.13,-833.8" style="stroke-width: 2px; fill: rgb(238, 231, 212);"/>
<text xml:space="preserve" text-anchor="start" x="1571.13" y="-846" font-family="Arial" font-size="24.00">    store_save_path    </text>

</g>
<g transform="translate(1876.1300048828125, -960.2000122070312)"><rect id="4:chevron-up" width="20" height="20" fill="transparent"/></g><g transform="translate(1600.1300048828125, -960.2000122070312)"><rect id="4:trash" width="20" height="20" fill="transparent"/></g><g transform="translate(1876.1300048828125, -960.2000122070312)"><rect id="4:chevron-up" width="20" height="20" fill="transparent"/></g><g transform="translate(1600.1300048828125, -960.2000122070312)"><rect id="4:trash" width="20" height="20" fill="transparent"/></g></g>
<!-- 1&#45;&gt;4 -->
<g id="1:116_8 -&gt; 4:5_4" class="edge" edge-from="1:116_8" edge-to="4:5_4">

<path fill="none" stroke="black" stroke-width="2" d="M1279.19,-935.2C1391.6,-935.2 1428.33,-908.07 1522.27,-901.45" style="stroke: rgb(73, 141, 158); stroke-width: 2px;"/>
<polygon fill="black" stroke="black" stroke-width="2" points="1522.6,-915.44 1562.1,-900.1 1521.65,-887.46 1522.6,-915.44" style="stroke: rgb(73, 141, 158); fill: rgb(73, 141, 158);"/>
<text xml:space="preserve" text-anchor="middle" x="1412.94" y="-923.91" font-family="Times,serif" font-size="14.00"> </text>
<path fill="none" stroke="black" stroke-width="2" d="M1279.19,-935.2C1391.6,-935.2 1428.33,-908.07 1522.27,-901.45" class="hover-path" style="stroke: rgba(0, 0, 0, 0); stroke-width: 15px;"/></g>
<!-- 1&#45;&gt;4 -->
<g id="1:116_8 -&gt; 4:18_4" class="edge" edge-from="1:116_8" edge-to="4:18_4">

<path fill="none" stroke="black" stroke-width="2" d="M1279.19,-935.2C1333.61,-935.2 1447.42,-879.63 1522.83,-859.98" style="stroke: rgb(73, 141, 158); stroke-width: 2px;"/>
<polygon fill="black" stroke="black" stroke-width="2" points="1524.86,-873.83 1562.14,-853.68 1520.43,-846.19 1524.86,-873.83" style="stroke: rgb(73, 141, 158); fill: rgb(73, 141, 158);"/>
<text xml:space="preserve" text-anchor="middle" x="1412.94" y="-902.09" font-family="Times,serif" font-size="14.00"> </text>
<path fill="none" stroke="black" stroke-width="2" d="M1279.19,-935.2C1333.61,-935.2 1447.42,-879.63 1522.83,-859.98" class="hover-path" style="stroke: rgba(0, 0, 0, 0); stroke-width: 15px;"/></g>
<!-- 6 -->
<g id="6" class="node clickable expanded children">

<path fill="lightgrey" stroke="none" d="M1927.56,-1159.8C1927.56,-1159.8 1534.69,-1159.8 1534.69,-1159.8 1528.69,-1159.8 1522.69,-1153.8 1522.69,-1147.8 1522.69,-1147.8 1522.69,-1050.2 1522.69,-1050.2 1522.69,-1044.2 1528.69,-1038.2 1534.69,-1038.2 1534.69,-1038.2 1927.56,-1038.2 1927.56,-1038.2 1933.56,-1038.2 1939.56,-1044.2 1939.56,-1050.2 1939.56,-1050.2 1939.56,-1147.8 1939.56,-1147.8 1939.56,-1153.8 1933.56,-1159.8 1927.56,-1159.8" style="stroke: rgb(248, 248, 242); fill: rgb(181, 191, 199); stroke-width: 2.66667px;"/>
<g id="6_47" class="title">
<text xml:space="preserve" text-anchor="start" x="1663.09" y="-1120.2" font-family="Arial" font-size="24px" fill="black" style="font-weight: 600;">thumbnail.py</text>

</g>
<g id="6:2_4" class="cell function clickable expanded">
<path fill="none" stroke="black" d="M1550.69,-1060.2C1550.69,-1060.2 1911.56,-1060.2 1911.56,-1060.2 1917.56,-1060.2 1923.56,-1066.2 1923.56,-1072.2 1923.56,-1072.2 1923.56,-1087 1923.56,-1087 1923.56,-1093 1917.56,-1099 1911.56,-1099 1911.56,-1099 1550.69,-1099 1550.69,-1099 1544.69,-1099 1538.69,-1093 1538.69,-1087 1538.69,-1087 1538.69,-1072.2 1538.69,-1072.2 1538.69,-1066.2 1544.69,-1060.2 1550.69,-1060.2" style="stroke-width: 2px; fill: rgb(238, 231, 212);"/>
<text xml:space="preserve" text-anchor="start" x="1543.69" y="-1072.4" font-family="Arial" font-size="24.00">    fetch_thumbnail_response    </text>

</g>
<g transform="translate(1903.56005859375, -1139.800048828125)"><rect id="6:chevron-up" width="20" height="20" fill="transparent"/></g><g transform="translate(1572.68994140625, -1139.800048828125)"><rect id="6:trash" width="20" height="20" fill="transparent"/></g><g transform="translate(1903.56005859375, -1139.800048828125)"><rect id="6:chevron-up" width="20" height="20" fill="transparent"/></g><g transform="translate(1572.68994140625, -1139.800048828125)"><rect id="6:trash" width="20" height="20" fill="transparent"/></g></g>
<!-- 1&#45;&gt;6 -->
<g id="1:17_8 -&gt; 6:2_4" class="edge" edge-from="1:17_8" edge-to="6:2_4">

<path fill="none" stroke="black" stroke-width="2" d="M1279.19,-1138.4C1381.14,-1138.4 1411.98,-1094.38 1494.77,-1082.52" style="stroke: rgb(73, 141, 158); stroke-width: 2px;"/>
<polygon fill="black" stroke="black" stroke-width="2" points="1495.71,-1096.48 1534.67,-1079.81 1493.81,-1068.55 1495.71,-1096.48" style="stroke: rgb(73, 141, 158); fill: rgb(73, 141, 158);"/>
<text xml:space="preserve" text-anchor="middle" x="1412.94" y="-1111.44" font-family="Times,serif" font-size="14.00"> </text>
<path fill="none" stroke="black" stroke-width="2" d="M1279.19,-1138.4C1381.14,-1138.4 1411.98,-1094.38 1494.77,-1082.52" class="hover-path" style="stroke: rgba(0, 0, 0, 0); stroke-width: 15px;"/></g>
<!-- 2 -->
<g id="2" class="node clickable expanded children">

<path fill="lightgrey" stroke="none" d="M647.47,-554.2C647.47,-554.2 190.59,-554.2 190.59,-554.2 184.59,-554.2 178.59,-548.2 178.59,-542.2 178.59,-542.2 178.59,-59.8 178.59,-59.8 178.59,-53.8 184.59,-47.8 190.59,-47.8 190.59,-47.8 647.47,-47.8 647.47,-47.8 653.47,-47.8 659.47,-53.8 659.47,-59.8 659.47,-59.8 659.47,-542.2 659.47,-542.2 659.47,-548.2 653.47,-554.2 647.47,-554.2" style="stroke: rgb(248, 248, 242); fill: rgb(181, 191, 199); stroke-width: 2.66667px;"/>
<g id="2_48" class="title">
<text xml:space="preserve" text-anchor="start" x="340.98" y="-514.6" font-family="Arial" font-size="24px" fill="black" style="font-weight: 600;">downloader.py</text>

</g>
<g id="2:13_6" class="cell type clickable children expanded">
<polygon fill="lightgray" stroke="none" points="194.59,-209.4 194.59,-481.4 643.47,-481.4 643.47,-209.4 194.59,-209.4" style="fill: rgb(230, 230, 230);"/>
<text xml:space="preserve" text-anchor="start" x="241.63" y="-445.8" font-family="Arial" font-weight="bold" font-size="24.00" style="fill: rgb(240, 128, 128);">   C</text>
<text xml:space="preserve" text-anchor="start" x="298.97" y="-445.8" font-family="Arial" font-size="24.00">    DownloaderScreen    </text>
<g id="2:14_8" class="cell method clickable expanded">
<path fill="none" stroke="black" d="M215.59,-380.8C215.59,-380.8 622.47,-380.8 622.47,-380.8 628.47,-380.8 634.47,-386.8 634.47,-392.8 634.47,-392.8 634.47,-411.6 634.47,-411.6 634.47,-417.6 628.47,-423.6 622.47,-423.6 622.47,-423.6 215.59,-423.6 215.59,-423.6 209.59,-423.6 203.59,-417.6 203.59,-411.6 203.59,-411.6 203.59,-392.8 203.59,-392.8 203.59,-386.8 209.59,-380.8 215.59,-380.8" style="stroke-width: 2px; fill: rgb(228, 214, 186);"/>
<text xml:space="preserve" text-anchor="start" x="210.59" y="-395" font-family="Arial" font-size="24.00">    __init__    </text>

</g>
<g id="2:38_8" class="cell method clickable expanded">
<path fill="none" stroke="black" d="M215.59,-330C215.59,-330 622.47,-330 622.47,-330 628.47,-330 634.47,-336 634.47,-342 634.47,-342 634.47,-360.8 634.47,-360.8 634.47,-366.8 628.47,-372.8 622.47,-372.8 622.47,-372.8 215.59,-372.8 215.59,-372.8 209.59,-372.8 203.59,-366.8 203.59,-360.8 203.59,-360.8 203.59,-342 203.59,-342 203.59,-336 209.59,-330 215.59,-330" style="stroke-width: 2px; fill: rgb(228, 214, 186);"/>
<text xml:space="preserve" text-anchor="start" x="210.59" y="-344.2" font-family="Arial" font-size="24.00">    run_download    </text>

</g>
<g id="2:28_8" class="cell method clickable expanded">
<path fill="none" stroke="black" d="M215.59,-279.2C215.59,-279.2 622.47,-279.2 622.47,-279.2 628.47,-279.2 634.47,-285.2 634.47,-291.2 634.47,-291.2 634.47,-310 634.47,-310 634.47,-316 628.47,-322 622.47,-322 622.47,-322 215.59,-322 215.59,-322 209.59,-322 203.59,-316 203.59,-310 203.59,-310 203.59,-291.2 203.59,-291.2 203.59,-285.2 209.59,-279.2 215.59,-279.2" style="stroke-width: 2px; fill: rgb(228, 214, 186);"/>
<text xml:space="preserve" text-anchor="start" x="210.59" y="-293.4" font-family="Arial" font-size="24.00">    start_download_thread    </text>

</g>
<g id="2:44_8" class="cell method clickable expanded">
<path fill="none" stroke="black" d="M215.59,-228.4C215.59,-228.4 622.47,-228.4 622.47,-228.4 628.47,-228.4 634.47,-234.4 634.47,-240.4 634.47,-240.4 634.47,-259.2 634.47,-259.2 634.47,-265.2 628.47,-271.2 622.47,-271.2 622.47,-271.2 215.59,-271.2 215.59,-271.2 209.59,-271.2 203.59,-265.2 203.59,-259.2 203.59,-259.2 203.59,-240.4 203.59,-240.4 203.59,-234.4 209.59,-228.4 215.59,-228.4" style="stroke-width: 2px; fill: rgb(228, 214, 186);"/>
<text xml:space="preserve" text-anchor="start" x="210.59" y="-242.6" font-family="Arial" font-size="24.00">    update_status    </text>

</g>
<polygon fill="none" stroke="black" points="194.59,-209.4 194.59,-481.4 643.47,-481.4 643.47,-209.4 194.59,-209.4" style="stroke-width: 2px;"/>

<g transform="translate(613.469970703125, -465.3999938964844)"><rect id="2:13_6:chevron-up" width="20" height="20" fill="transparent"/></g><g transform="translate(613.469970703125, -465.3999938964844)"><rect id="2:13_6:chevron-up" width="20" height="20" fill="transparent"/></g></g>
<g id="2:47_6" class="cell type clickable children expanded">
<polygon fill="lightgray" stroke="none" points="194.59,-69.8 194.59,-189.4 643.47,-189.4 643.47,-69.8 194.59,-69.8" style="fill: rgb(230, 230, 230);"/>
<text xml:space="preserve" text-anchor="start" x="209.59" y="-153.8" font-family="Arial" font-weight="bold" font-size="24.00" style="fill: rgb(240, 128, 128);">   C</text>
<text xml:space="preserve" text-anchor="start" x="266.93" y="-153.8" font-family="Arial" font-size="24.00">    YouTubeDownloaderApp    </text>
<g id="2:48_8" class="cell method clickable expanded">
<path fill="none" stroke="black" d="M215.59,-88.8C215.59,-88.8 622.47,-88.8 622.47,-88.8 628.47,-88.8 634.47,-94.8 634.47,-100.8 634.47,-100.8 634.47,-119.6 634.47,-119.6 634.47,-125.6 628.47,-131.6 622.47,-131.6 622.47,-131.6 215.59,-131.6 215.59,-131.6 209.59,-131.6 203.59,-125.6 203.59,-119.6 203.59,-119.6 203.59,-100.8 203.59,-100.8 203.59,-94.8 209.59,-88.8 215.59,-88.8" style="stroke-width: 2px; fill: rgb(228, 214, 186);"/>
<text xml:space="preserve" text-anchor="start" x="210.59" y="-103" font-family="Arial" font-size="24.00">    build    </text>

</g>
<polygon fill="none" stroke="black" points="194.59,-69.8 194.59,-189.4 643.47,-189.4 643.47,-69.8 194.59,-69.8" style="stroke-width: 2px;"/>

<g transform="translate(613.469970703125, -173.39999389648438)"><rect id="2:47_6:chevron-up" width="20" height="20" fill="transparent"/></g><g transform="translate(613.469970703125, -173.39999389648438)"><rect id="2:47_6:chevron-up" width="20" height="20" fill="transparent"/></g></g>
<g transform="translate(623.469970703125, -534.2000122070312)"><rect id="2:chevron-up" width="20" height="20" fill="transparent"/></g><g transform="translate(228.58999633789062, -534.2000122070312)"><rect id="2:trash" width="20" height="20" fill="transparent"/></g><g transform="translate(623.469970703125, -534.2000122070312)"><rect id="2:chevron-up" width="20" height="20" fill="transparent"/></g><g transform="translate(228.58999633789062, -534.2000122070312)"><rect id="2:trash" width="20" height="20" fill="transparent"/></g></g>
<!-- 2&#45;&gt;2 -->
<g id="2:14_8 -&gt; 2:28_8" class="edge" edge-from="2:14_8" edge-to="2:28_8">

<path fill="none" stroke="black" stroke-width="2" d="M203.63,-405.08C97.66,-400.8 3.5,-386.26 3.5,-351.4 3.5,-321.34 73.51,-306.39 160.74,-300.1" style="stroke: rgb(73, 141, 158); stroke-width: 2px;"/>
<polygon fill="black" stroke="black" stroke-width="2" points="161.45,-314.08 200.61,-297.89 159.9,-286.12 161.45,-314.08" style="stroke: rgb(73, 141, 158); fill: rgb(73, 141, 158);"/>
<text xml:space="preserve" text-anchor="middle" x="1.75" y="-296.8" font-family="Times,serif" font-size="14.00"> </text>
<path fill="none" stroke="black" stroke-width="2" d="M203.63,-405.08C97.66,-400.8 3.5,-386.26 3.5,-351.4 3.5,-321.34 73.51,-306.39 160.74,-300.1" class="hover-path" style="stroke: rgba(0, 0, 0, 0); stroke-width: 15px;"/></g>
<!-- 2&#45;&gt;2 -->
<g id="2:28_8 -&gt; 2:38_8" class="edge" edge-from="2:28_8" edge-to="2:38_8">

<path fill="none" stroke="black" stroke-width="2" d="M203.63,-295.88C97.66,-297.58 3.5,-305.94 3.5,-326 3.5,-343.29 73.51,-351.89 160.74,-355.03" style="stroke: rgb(73, 141, 158); stroke-width: 2px;"/>
<polygon fill="black" stroke="black" stroke-width="2" points="160.26,-369.02 200.61,-356.04 160.98,-341.03 160.26,-369.02" style="stroke: rgb(73, 141, 158); fill: rgb(73, 141, 158);"/>
<text xml:space="preserve" text-anchor="middle" x="1.75" y="-296.8" font-family="Times,serif" font-size="14.00"> </text>
<path fill="none" stroke="black" stroke-width="2" d="M203.63,-295.88C97.66,-297.58 3.5,-305.94 3.5,-326 3.5,-343.29 73.51,-351.89 160.74,-355.03" class="hover-path" style="stroke: rgba(0, 0, 0, 0); stroke-width: 15px;"/></g>
<!-- 3&#45;&gt;3 -->
<g id="3:16_8 -&gt; 3:28_8" class="edge" edge-from="3:16_8" edge-to="3:28_8">

<path fill="none" stroke="black" stroke-width="2" d="M1575.47,-1287.69C1480.71,-1290.64 1391.03,-1304.59 1391.03,-1342.2 1391.03,-1374.04 1455.32,-1388.93 1532.55,-1394.53" style="stroke: rgb(73, 141, 158); stroke-width: 2px;"/>
<polygon fill="black" stroke="black" stroke-width="2" points="1531.79,-1408.51 1572.44,-1396.55 1533.2,-1380.55 1531.79,-1408.51" style="stroke: rgb(73, 141, 158); fill: rgb(73, 141, 158);"/>
<text xml:space="preserve" text-anchor="middle" x="1389.28" y="-1382.8" font-family="Times,serif" font-size="14.00"> </text>
<path fill="none" stroke="black" stroke-width="2" d="M1575.47,-1287.69C1480.71,-1290.64 1391.03,-1304.59 1391.03,-1342.2 1391.03,-1374.04 1455.32,-1388.93 1532.55,-1394.53" class="hover-path" style="stroke: rgba(0, 0, 0, 0); stroke-width: 15px;"/></g>
<!-- 3&#45;&gt;3 -->
<g id="3:60_8 -&gt; 3:99_8" class="edge" edge-from="3:60_8" edge-to="3:99_8">

<path fill="none" stroke="black" stroke-width="2" d="M1575.47,-1236.89C1480.71,-1239.84 1391.03,-1253.79 1391.03,-1291.4 1391.03,-1323.24 1455.32,-1338.13 1532.55,-1343.73" style="stroke: rgb(73, 141, 158); stroke-width: 2px;"/>
<polygon fill="black" stroke="black" stroke-width="2" points="1531.79,-1357.71 1572.44,-1345.75 1533.2,-1329.75 1531.79,-1357.71" style="stroke: rgb(73, 141, 158); fill: rgb(73, 141, 158);"/>
<text xml:space="preserve" text-anchor="middle" x="1389.28" y="-1382.8" font-family="Times,serif" font-size="14.00"> </text>
<path fill="none" stroke="black" stroke-width="2" d="M1575.47,-1236.89C1480.71,-1239.84 1391.03,-1253.79 1391.03,-1291.4 1391.03,-1323.24 1455.32,-1338.13 1532.55,-1343.73" class="hover-path" style="stroke: rgba(0, 0, 0, 0); stroke-width: 15px;"/></g>
<!-- 5 -->
<g id="5" class="node clickable no-expand children">

<path fill="lightgrey" stroke="none" d="M1260.08,-854.4C1260.08,-854.4 922.08,-854.4 922.08,-854.4 916.08,-854.4 910.08,-848.4 910.08,-842.4 910.08,-842.4 910.08,-791.6 910.08,-791.6 910.08,-785.6 916.08,-779.6 922.08,-779.6 922.08,-779.6 1260.08,-779.6 1260.08,-779.6 1266.08,-779.6 1272.08,-785.6 1272.08,-791.6 1272.08,-791.6 1272.08,-842.4 1272.08,-842.4 1272.08,-848.4 1266.08,-854.4 1260.08,-854.4" style="stroke: rgb(248, 248, 242); fill: rgb(253, 153, 153); stroke-width: 2.66667px;"/>
<g id="5_49" class="title">
<text xml:space="preserve" text-anchor="start" x="993.68" y="-814.8" font-family="Arial" font-size="24px" fill="black" style="font-weight: 600;">test_save_path.py</text>

</g>
<g transform="translate(960.0800170898438, -834.4000244140625)"><rect id="5:trash" width="20" height="20" fill="transparent"/></g><g transform="translate(960.0800170898438, -834.4000244140625)"><rect id="5:trash" width="20" height="20" fill="transparent"/></g></g>
<!-- 5&#45;&gt;4 -->
<g id="5:0_0 -&gt; 4:5_4" class="edge" edge-from="5:0_0" edge-to="4:5_4">

<path fill="none" stroke="black" stroke-width="2" d="M1272.05,-834.48C1318.73,-840.36 1368.78,-847.87 1414.69,-857.2 1466.05,-867.64 1485.96,-886.67 1522.44,-895.4" style="stroke: rgb(73, 141, 158); stroke-width: 2px;"/>
<polygon fill="black" stroke="black" stroke-width="2" points="1520.85,-909.31 1562.12,-899.68 1523.85,-881.47 1520.85,-909.31" style="stroke: rgb(73, 141, 158); fill: rgb(73, 141, 158);"/>
<text xml:space="preserve" text-anchor="middle" x="1412.94" y="-861.4" font-family="Times,serif" font-size="14.00"> </text>
<path fill="none" stroke="black" stroke-width="2" d="M1272.05,-834.48C1318.73,-840.36 1368.78,-847.87 1414.69,-857.2 1466.05,-867.64 1485.96,-886.67 1522.44,-895.4" class="hover-path" style="stroke: rgba(0, 0, 0, 0); stroke-width: 15px;"/></g>
<!-- 5&#45;&gt;4 -->
<g id="5:0_0 -&gt; 4:18_4" class="edge" edge-from="5:0_0" edge-to="4:18_4">

<path fill="none" stroke="black" stroke-width="2" d="M1271.8,-826C1318.37,-828.8 1368.43,-832.21 1414.69,-836.2 1464.84,-840.52 1486.49,-847.89 1522.38,-851.33" style="stroke: rgb(73, 141, 158); stroke-width: 2px;"/>
<polygon fill="black" stroke="black" stroke-width="2" points="1521.53,-865.31 1562.1,-853.07 1522.75,-837.33 1521.53,-865.31" style="stroke: rgb(73, 141, 158); fill: rgb(73, 141, 158);"/>
<text xml:space="preserve" text-anchor="middle" x="1412.94" y="-840.4" font-family="Times,serif" font-size="14.00"> </text>
<path fill="none" stroke="black" stroke-width="2" d="M1271.8,-826C1318.37,-828.8 1368.43,-832.21 1414.69,-836.2 1464.84,-840.52 1486.49,-847.89 1522.38,-851.33" class="hover-path" style="stroke: rgba(0, 0, 0, 0); stroke-width: 15px;"/></g>
<!-- 7 -->
<g id="7" class="node clickable expanded children">

<path fill="lightgrey" stroke="none" d="M633.81,-1595.6C633.81,-1595.6 204.25,-1595.6 204.25,-1595.6 198.25,-1595.6 192.25,-1589.6 192.25,-1583.6 192.25,-1583.6 192.25,-584.4 192.25,-584.4 192.25,-578.4 198.25,-572.4 204.25,-572.4 204.25,-572.4 633.81,-572.4 633.81,-572.4 639.81,-572.4 645.81,-578.4 645.81,-584.4 645.81,-584.4 645.81,-1583.6 645.81,-1583.6 645.81,-1589.6 639.81,-1595.6 633.81,-1595.6" style="stroke: rgb(248, 248, 242); fill: rgb(181, 191, 199); stroke-width: 2.66667px;"/>
<g id="7_50" class="title">
<text xml:space="preserve" text-anchor="start" x="393.68" y="-1556" font-family="Arial" font-size="24px" fill="black" style="font-weight: 600;">ui.py</text>

</g>
<g id="7:0_0" class="cell global-scope clickable expanded">
<path fill="none" stroke="black" d="M220.25,-1496C220.25,-1496 617.81,-1496 617.81,-1496 623.81,-1496 629.81,-1502 629.81,-1508 629.81,-1508 629.81,-1522.8 629.81,-1522.8 629.81,-1528.8 623.81,-1534.8 617.81,-1534.8 617.81,-1534.8 220.25,-1534.8 220.25,-1534.8 214.25,-1534.8 208.25,-1528.8 208.25,-1522.8 208.25,-1522.8 208.25,-1508 208.25,-1508 208.25,-1502 214.25,-1496 220.25,-1496" style="stroke-width: 2px; fill: rgb(230, 230, 230);"/>
<text xml:space="preserve" text-anchor="start" x="213.25" y="-1508.2" font-family="Arial" font-size="24.00">    Global scope    </text>

</g>
<g id="7:7_6" class="cell type clickable children expanded">
<polygon fill="lightgray" stroke="none" points="208.25,-594.4 208.25,-1476 629.81,-1476 629.81,-594.4 208.25,-594.4" style="fill: rgb(230, 230, 230);"/>
<text xml:space="preserve" text-anchor="start" x="301.01" y="-1440.4" font-family="Arial" font-weight="bold" font-size="24.00" style="fill: rgb(240, 128, 128);">   C</text>
<text xml:space="preserve" text-anchor="start" x="358.35" y="-1440.4" font-family="Arial" font-size="24.00">    Window    </text>
<g id="7:10_8" class="cell method clickable expanded">
<path fill="none" stroke="black" d="M229.25,-1375.4C229.25,-1375.4 608.81,-1375.4 608.81,-1375.4 614.81,-1375.4 620.81,-1381.4 620.81,-1387.4 620.81,-1387.4 620.81,-1406.2 620.81,-1406.2 620.81,-1412.2 614.81,-1418.2 608.81,-1418.2 608.81,-1418.2 229.25,-1418.2 229.25,-1418.2 223.25,-1418.2 217.25,-1412.2 217.25,-1406.2 217.25,-1406.2 217.25,-1387.4 217.25,-1387.4 217.25,-1381.4 223.25,-1375.4 229.25,-1375.4" style="stroke-width: 2px; fill: rgb(228, 214, 186);"/>
<text xml:space="preserve" text-anchor="start" x="224.25" y="-1389.6" font-family="Arial" font-size="24.00">    __init__    </text>

</g>
<g id="7:83_8" class="cell method clickable expanded">
<path fill="none" stroke="black" d="M229.25,-1324.6C229.25,-1324.6 608.81,-1324.6 608.81,-1324.6 614.81,-1324.6 620.81,-1330.6 620.81,-1336.6 620.81,-1336.6 620.81,-1355.4 620.81,-1355.4 620.81,-1361.4 614.81,-1367.4 608.81,-1367.4 608.81,-1367.4 229.25,-1367.4 229.25,-1367.4 223.25,-1367.4 217.25,-1361.4 217.25,-1355.4 217.25,-1355.4 217.25,-1336.6 217.25,-1336.6 217.25,-1330.6 223.25,-1324.6 229.25,-1324.6" style="stroke-width: 2px; fill: rgb(228, 214, 186);"/>
<text xml:space="preserve" text-anchor="start" x="224.25" y="-1338.8" font-family="Arial" font-size="24.00">    _setup_action    </text>

</g>
<g id="7:67_8" class="cell method clickable expanded">
<path fill="none" stroke="black" d="M229.25,-1273.8C229.25,-1273.8 608.81,-1273.8 608.81,-1273.8 614.81,-1273.8 620.81,-1279.8 620.81,-1285.8 620.81,-1285.8 620.81,-1304.6 620.81,-1304.6 620.81,-1310.6 614.81,-1316.6 608.81,-1316.6 608.81,-1316.6 229.25,-1316.6 229.25,-1316.6 223.25,-1316.6 217.25,-1310.6 217.25,-1304.6 217.25,-1304.6 217.25,-1285.8 217.25,-1285.8 217.25,-1279.8 223.25,-1273.8 229.25,-1273.8" style="stroke-width: 2px; fill: rgb(228, 214, 186);"/>
<text xml:space="preserve" text-anchor="start" x="224.25" y="-1288" font-family="Arial" font-size="24.00">    _setup_input    </text>

</g>
<g id="7:131_8" class="cell method clickable expanded">
<path fill="none" stroke="black" d="M229.25,-1223C229.25,-1223 608.81,-1223 608.81,-1223 614.81,-1223 620.81,-1229 620.81,-1235 620.81,-1235 620.81,-1253.8 620.81,-1253.8 620.81,-1259.8 614.81,-1265.8 608.81,-1265.8 608.81,-1265.8 229.25,-1265.8 229.25,-1265.8 223.25,-1265.8 217.25,-1259.8 217.25,-1253.8 217.25,-1253.8 217.25,-1235 217.25,-1235 217.25,-1229 223.25,-1223 229.25,-1223" style="stroke-width: 2px; fill: rgb(228, 214, 186);"/>
<text xml:space="preserve" text-anchor="start" x="224.25" y="-1237.2" font-family="Arial" font-size="24.00">    _setup_progress    </text>

</g>
<g id="7:52_8" class="cell method clickable expanded">
<path fill="none" stroke="black" d="M229.25,-1172.2C229.25,-1172.2 608.81,-1172.2 608.81,-1172.2 614.81,-1172.2 620.81,-1178.2 620.81,-1184.2 620.81,-1184.2 620.81,-1203 620.81,-1203 620.81,-1209 614.81,-1215 608.81,-1215 608.81,-1215 229.25,-1215 229.25,-1215 223.25,-1215 217.25,-1209 217.25,-1203 217.25,-1203 217.25,-1184.2 217.25,-1184.2 217.25,-1178.2 223.25,-1172.2 229.25,-1172.2" style="stroke-width: 2px; fill: rgb(228, 214, 186);"/>
<text xml:space="preserve" text-anchor="start" x="224.25" y="-1186.4" font-family="Arial" font-size="24.00">    _setup_root    </text>

</g>
<g id="7:58_8" class="cell method clickable expanded">
<path fill="none" stroke="black" d="M229.25,-1121.4C229.25,-1121.4 608.81,-1121.4 608.81,-1121.4 614.81,-1121.4 620.81,-1127.4 620.81,-1133.4 620.81,-1133.4 620.81,-1152.2 620.81,-1152.2 620.81,-1158.2 614.81,-1164.2 608.81,-1164.2 608.81,-1164.2 229.25,-1164.2 229.25,-1164.2 223.25,-1164.2 217.25,-1158.2 217.25,-1152.2 217.25,-1152.2 217.25,-1133.4 217.25,-1133.4 217.25,-1127.4 223.25,-1121.4 229.25,-1121.4" style="stroke-width: 2px; fill: rgb(228, 214, 186);"/>
<text xml:space="preserve" text-anchor="start" x="224.25" y="-1135.6" font-family="Arial" font-size="24.00">    _setup_title    </text>

</g>
<g id="7:190_8" class="cell method clickable expanded">
<path fill="none" stroke="black" d="M229.25,-1070.6C229.25,-1070.6 608.81,-1070.6 608.81,-1070.6 614.81,-1070.6 620.81,-1076.6 620.81,-1082.6 620.81,-1082.6 620.81,-1101.4 620.81,-1101.4 620.81,-1107.4 614.81,-1113.4 608.81,-1113.4 608.81,-1113.4 229.25,-1113.4 229.25,-1113.4 223.25,-1113.4 217.25,-1107.4 217.25,-1101.4 217.25,-1101.4 217.25,-1082.6 217.25,-1082.6 217.25,-1076.6 223.25,-1070.6 229.25,-1070.6" style="stroke-width: 2px; fill: rgb(228, 214, 186);"/>
<text xml:space="preserve" text-anchor="start" x="224.25" y="-1084.8" font-family="Arial" font-size="24.00">    ask_directory    </text>

</g>
<g id="7:186_8" class="cell method clickable expanded">
<path fill="none" stroke="black" d="M229.25,-1019.8C229.25,-1019.8 608.81,-1019.8 608.81,-1019.8 614.81,-1019.8 620.81,-1025.8 620.81,-1031.8 620.81,-1031.8 620.81,-1050.6 620.81,-1050.6 620.81,-1056.6 614.81,-1062.6 608.81,-1062.6 608.81,-1062.6 229.25,-1062.6 229.25,-1062.6 223.25,-1062.6 217.25,-1056.6 217.25,-1050.6 217.25,-1050.6 217.25,-1031.8 217.25,-1031.8 217.25,-1025.8 223.25,-1019.8 229.25,-1019.8" style="stroke-width: 2px; fill: rgb(228, 214, 186);"/>
<text xml:space="preserve" text-anchor="start" x="224.25" y="-1034" font-family="Arial" font-size="24.00">    ask_yes_no    </text>

</g>
<g id="7:170_8" class="cell method clickable expanded">
<path fill="none" stroke="black" d="M229.25,-969C229.25,-969 608.81,-969 608.81,-969 614.81,-969 620.81,-975 620.81,-981 620.81,-981 620.81,-999.8 620.81,-999.8 620.81,-1005.8 614.81,-1011.8 608.81,-1011.8 608.81,-1011.8 229.25,-1011.8 229.25,-1011.8 223.25,-1011.8 217.25,-1005.8 217.25,-999.8 217.25,-999.8 217.25,-981 217.25,-981 217.25,-975 223.25,-969 229.25,-969" style="stroke-width: 2px; fill: rgb(228, 214, 186);"/>
<text xml:space="preserve" text-anchor="start" x="224.25" y="-983.2" font-family="Arial" font-size="24.00">    clear_thumbnail_and_title    </text>

</g>
<g id="7:154_8" class="cell method clickable expanded">
<path fill="none" stroke="black" d="M229.25,-918.2C229.25,-918.2 608.81,-918.2 608.81,-918.2 614.81,-918.2 620.81,-924.2 620.81,-930.2 620.81,-930.2 620.81,-949 620.81,-949 620.81,-955 614.81,-961 608.81,-961 608.81,-961 229.25,-961 229.25,-961 223.25,-961 217.25,-955 217.25,-949 217.25,-949 217.25,-930.2 217.25,-930.2 217.25,-924.2 223.25,-918.2 229.25,-918.2" style="stroke-width: 2px; fill: rgb(228, 214, 186);"/>
<text xml:space="preserve" text-anchor="start" x="224.25" y="-932.4" font-family="Arial" font-size="24.00">    display_thumbnail_and_title    </text>

</g>
<g id="7:198_8" class="cell method clickable expanded">
<path fill="none" stroke="black" d="M229.25,-867.4C229.25,-867.4 608.81,-867.4 608.81,-867.4 614.81,-867.4 620.81,-873.4 620.81,-879.4 620.81,-879.4 620.81,-898.2 620.81,-898.2 620.81,-904.2 614.81,-910.2 608.81,-910.2 608.81,-910.2 229.25,-910.2 229.25,-910.2 223.25,-910.2 217.25,-904.2 217.25,-898.2 217.25,-898.2 217.25,-879.4 217.25,-879.4 217.25,-873.4 223.25,-867.4 229.25,-867.4" style="stroke-width: 2px; fill: rgb(228, 214, 186);"/>
<text xml:space="preserve" text-anchor="start" x="224.25" y="-881.6" font-family="Arial" font-size="24.00">    hide_progress    </text>

</g>
<g id="7:202_8" class="cell method clickable expanded">
<path fill="none" stroke="black" d="M229.25,-816.6C229.25,-816.6 608.81,-816.6 608.81,-816.6 614.81,-816.6 620.81,-822.6 620.81,-828.6 620.81,-828.6 620.81,-847.4 620.81,-847.4 620.81,-853.4 614.81,-859.4 608.81,-859.4 608.81,-859.4 229.25,-859.4 229.25,-859.4 223.25,-859.4 217.25,-853.4 217.25,-847.4 217.25,-847.4 217.25,-828.6 217.25,-828.6 217.25,-822.6 223.25,-816.6 229.25,-816.6" style="stroke-width: 2px; fill: rgb(228, 214, 186);"/>
<text xml:space="preserve" text-anchor="start" x="224.25" y="-830.8" font-family="Arial" font-size="24.00">    run    </text>

</g>
<g id="7:44_8" class="cell method clickable expanded">
<path fill="none" stroke="black" d="M229.25,-765.8C229.25,-765.8 608.81,-765.8 608.81,-765.8 614.81,-765.8 620.81,-771.8 620.81,-777.8 620.81,-777.8 620.81,-796.6 620.81,-796.6 620.81,-802.6 614.81,-808.6 608.81,-808.6 608.81,-808.6 229.25,-808.6 229.25,-808.6 223.25,-808.6 217.25,-802.6 217.25,-796.6 217.25,-796.6 217.25,-777.8 217.25,-777.8 217.25,-771.8 223.25,-765.8 229.25,-765.8" style="stroke-width: 2px; fill: rgb(228, 214, 186);"/>
<text xml:space="preserve" text-anchor="start" x="224.25" y="-780" font-family="Arial" font-size="24.00">    setup    </text>

</g>
<g id="7:178_8" class="cell method clickable expanded">
<path fill="none" stroke="black" d="M229.25,-715C229.25,-715 608.81,-715 608.81,-715 614.81,-715 620.81,-721 620.81,-727 620.81,-727 620.81,-745.8 620.81,-745.8 620.81,-751.8 614.81,-757.8 608.81,-757.8 608.81,-757.8 229.25,-757.8 229.25,-757.8 223.25,-757.8 217.25,-751.8 217.25,-745.8 217.25,-745.8 217.25,-727 217.25,-727 217.25,-721 223.25,-715 229.25,-715" style="stroke-width: 2px; fill: rgb(228, 214, 186);"/>
<text xml:space="preserve" text-anchor="start" x="224.25" y="-729.2" font-family="Arial" font-size="24.00">    show_error    </text>

</g>
<g id="7:182_8" class="cell method clickable expanded">
<path fill="none" stroke="black" d="M229.25,-664.2C229.25,-664.2 608.81,-664.2 608.81,-664.2 614.81,-664.2 620.81,-670.2 620.81,-676.2 620.81,-676.2 620.81,-695 620.81,-695 620.81,-701 614.81,-707 608.81,-707 608.81,-707 229.25,-707 229.25,-707 223.25,-707 217.25,-701 217.25,-695 217.25,-695 217.25,-676.2 217.25,-676.2 217.25,-670.2 223.25,-664.2 229.25,-664.2" style="stroke-width: 2px; fill: rgb(228, 214, 186);"/>
<text xml:space="preserve" text-anchor="start" x="224.25" y="-678.4" font-family="Arial" font-size="24.00">    show_info    </text>

</g>
<g id="7:194_8" class="cell method clickable expanded">
<path fill="none" stroke="black" d="M229.25,-613.4C229.25,-613.4 608.81,-613.4 608.81,-613.4 614.81,-613.4 620.81,-619.4 620.81,-625.4 620.81,-625.4 620.81,-644.2 620.81,-644.2 620.81,-650.2 614.81,-656.2 608.81,-656.2 608.81,-656.2 229.25,-656.2 229.25,-656.2 223.25,-656.2 217.25,-650.2 217.25,-644.2 217.25,-644.2 217.25,-625.4 217.25,-625.4 217.25,-619.4 223.25,-613.4 229.25,-613.4" style="stroke-width: 2px; fill: rgb(228, 214, 186);"/>
<text xml:space="preserve" text-anchor="start" x="224.25" y="-627.6" font-family="Arial" font-size="24.00">    show_progress    </text>

</g>
<polygon fill="none" stroke="black" points="208.25,-594.4 208.25,-1476 629.81,-1476 629.81,-594.4 208.25,-594.4" style="stroke-width: 2px;"/>

<g transform="translate(599.8099975585938, -1460)"><rect id="7:7_6:chevron-up" width="20" height="20" fill="transparent"/></g><g transform="translate(599.8099975585938, -1460)"><rect id="7:7_6:chevron-up" width="20" height="20" fill="transparent"/></g></g>
<g transform="translate(609.8099975585938, -1575.5999755859375)"><rect id="7:chevron-up" width="20" height="20" fill="transparent"/></g><g transform="translate(242.25, -1575.5999755859375)"><rect id="7:trash" width="20" height="20" fill="transparent"/></g><g transform="translate(609.8099975585938, -1575.5999755859375)"><rect id="7:chevron-up" width="20" height="20" fill="transparent"/></g><g transform="translate(242.25, -1575.5999755859375)"><rect id="7:trash" width="20" height="20" fill="transparent"/></g></g>
<!-- 7&#45;&gt;1 -->
<g id="7:67_8 -&gt; 1:17_8" class="edge" edge-from="7:67_8" edge-to="1:17_8">

<path fill="none" stroke="black" stroke-width="2" d="M621.81,-1295.2C749.1,-1295.2 759.19,-1171.1 860.61,-1143.71" style="stroke: rgb(73, 141, 158); stroke-width: 2px;"/>
<polygon fill="black" stroke="black" stroke-width="2" points="862.02,-1157.64 899.97,-1138.78 858.53,-1129.86 862.02,-1157.64" style="stroke: rgb(73, 141, 158); fill: rgb(73, 141, 158);"/>
<text xml:space="preserve" text-anchor="middle" x="769.22" y="-1211.61" font-family="Times,serif" font-size="14.00"> </text>
<path fill="none" stroke="black" stroke-width="2" d="M621.81,-1295.2C749.1,-1295.2 759.19,-1171.1 860.61,-1143.71" class="hover-path" style="stroke: rgba(0, 0, 0, 0); stroke-width: 15px;"/></g>
<!-- 7&#45;&gt;1 -->
<g id="7:83_8 -&gt; 1:112_8" class="edge" edge-from="7:83_8" edge-to="1:112_8">

<path fill="none" stroke="black" stroke-width="2" d="M621.81,-1346C694.48,-1346 715.13,-1325.52 770.97,-1279 836.56,-1224.35 813.34,-1129.36 861.55,-1097.99" style="stroke: rgb(73, 141, 158); stroke-width: 2px;"/>
<polygon fill="black" stroke="black" stroke-width="2" points="864.64,-1111.65 900.03,-1088.34 857.83,-1084.49 864.64,-1111.65" style="stroke: rgb(73, 141, 158); fill: rgb(73, 141, 158);"/>
<text xml:space="preserve" text-anchor="middle" x="769.22" y="-1285.96" font-family="Times,serif" font-size="14.00"> </text>
<path fill="none" stroke="black" stroke-width="2" d="M621.81,-1346C694.48,-1346 715.13,-1325.52 770.97,-1279 836.56,-1224.35 813.34,-1129.36 861.55,-1097.99" class="hover-path" style="stroke: rgba(0, 0, 0, 0); stroke-width: 15px;"/></g>
<!-- 7&#45;&gt;1 -->
<g id="7:83_8 -&gt; 1:54_8" class="edge" edge-from="7:83_8" edge-to="1:54_8">

<path fill="none" stroke="black" stroke-width="2" d="M621.81,-1346C706.34,-1346 713.17,-1289.68 770.97,-1228 829.44,-1165.6 810.78,-1075.43 861.28,-1046.27" style="stroke: rgb(73, 141, 158); stroke-width: 2px;"/>
<polygon fill="black" stroke="black" stroke-width="2" points="864.11,-1059.99 900.02,-1037.47 857.91,-1032.68 864.11,-1059.99" style="stroke: rgb(73, 141, 158); fill: rgb(73, 141, 158);"/>
<text xml:space="preserve" text-anchor="middle" x="769.22" y="-1235.89" font-family="Times,serif" font-size="14.00"> </text>
<path fill="none" stroke="black" stroke-width="2" d="M621.81,-1346C706.34,-1346 713.17,-1289.68 770.97,-1228 829.44,-1165.6 810.78,-1075.43 861.28,-1046.27" class="hover-path" style="stroke: rgba(0, 0, 0, 0); stroke-width: 15px;"/></g>
<!-- 7&#45;&gt;1 -->
<g id="7:83_8 -&gt; 1:86_8" class="edge" edge-from="7:83_8" edge-to="1:86_8">

<path fill="none" stroke="black" stroke-width="2" d="M621.81,-1346C808.76,-1346 717.66,-1040.7 860.62,-992.4" style="stroke: rgb(73, 141, 158); stroke-width: 2px;"/>
<polygon fill="black" stroke="black" stroke-width="2" points="862.52,-1006.27 899.98,-986.45 858.33,-978.59 862.52,-1006.27" style="stroke: rgb(73, 141, 158); fill: rgb(73, 141, 158);"/>
<text xml:space="preserve" text-anchor="middle" x="769.22" y="-1137.96" font-family="Times,serif" font-size="14.00"> </text>
<path fill="none" stroke="black" stroke-width="2" d="M621.81,-1346C808.76,-1346 717.66,-1040.7 860.62,-992.4" class="hover-path" style="stroke: rgba(0, 0, 0, 0); stroke-width: 15px;"/></g>
<!-- 7&#45;&gt;1 -->
<g id="7:83_8 -&gt; 1:116_8" class="edge" edge-from="7:83_8" edge-to="1:116_8">

<path fill="none" stroke="black" stroke-width="2" d="M621.81,-1346C827.07,-1346 703.04,-992.43 860.71,-941.33" style="stroke: rgb(73, 141, 158); stroke-width: 2px;"/>
<polygon fill="black" stroke="black" stroke-width="2" points="862.4,-955.23 899.97,-935.63 858.38,-927.52 862.4,-955.23" style="stroke: rgb(73, 141, 158); fill: rgb(73, 141, 158);"/>
<text xml:space="preserve" text-anchor="middle" x="769.22" y="-1108.01" font-family="Times,serif" font-size="14.00"> </text>
<path fill="none" stroke="black" stroke-width="2" d="M621.81,-1346C827.07,-1346 703.04,-992.43 860.71,-941.33" class="hover-path" style="stroke: rgba(0, 0, 0, 0); stroke-width: 15px;"/></g>
<!-- 7&#45;&gt;7 -->
<g id="7:0_0 -&gt; 7:44_8" class="edge" edge-from="7:0_0" edge-to="7:44_8">

<path fill="none" stroke="black" stroke-width="2" d="M212,-1496.01C108.99,-1460.28 17.16,-1369.73 17.16,-1151.3 17.16,-957.48 89.46,-864.34 177.73,-820.85" style="stroke: rgb(73, 141, 158); stroke-width: 2px;"/>
<polygon fill="black" stroke="black" stroke-width="2" points="182.81,-833.9 214.62,-805.9 172.29,-807.95 182.81,-833.9" style="stroke: rgb(73, 141, 158); fill: rgb(73, 141, 158);"/>
<text xml:space="preserve" text-anchor="middle" x="15.41" y="-1079.8" font-family="Times,serif" font-size="14.00"> </text>
<path fill="none" stroke="black" stroke-width="2" d="M212,-1496.01C108.99,-1460.28 17.16,-1369.73 17.16,-1151.3 17.16,-957.48 89.46,-864.34 177.73,-820.85" class="hover-path" style="stroke: rgba(0, 0, 0, 0); stroke-width: 15px;"/></g>
<!-- 7&#45;&gt;7 -->
<g id="7:0_0 -&gt; 7:202_8" class="edge" edge-from="7:0_0" edge-to="7:202_8">

<path fill="none" stroke="black" stroke-width="2" d="M208.4,-1496.64C106.86,-1462.66 17.16,-1377.88 17.16,-1176.7 17.16,-996.27 89.3,-909.47 177.43,-868.97" style="stroke: rgb(73, 141, 158); stroke-width: 2px;"/>
<polygon fill="black" stroke="black" stroke-width="2" points="182.11,-882.17 214.59,-854.95 172.23,-855.97 182.11,-882.17" style="stroke: rgb(73, 141, 158); fill: rgb(73, 141, 158);"/>
<text xml:space="preserve" text-anchor="middle" x="15.41" y="-1079.8" font-family="Times,serif" font-size="14.00"> </text>
<path fill="none" stroke="black" stroke-width="2" d="M208.4,-1496.64C106.86,-1462.66 17.16,-1377.88 17.16,-1176.7 17.16,-996.27 89.3,-909.47 177.43,-868.97" class="hover-path" style="stroke: rgba(0, 0, 0, 0); stroke-width: 15px;"/></g>
<!-- 7&#45;&gt;7 -->
<g id="7:44_8 -&gt; 7:83_8" class="edge" edge-from="7:44_8" edge-to="7:83_8">

<path fill="none" stroke="black" stroke-width="2" d="M217.43,-799.16C112.23,-825.34 17.16,-894.8 17.16,-1066.6 17.16,-1215.75 88.82,-1287.77 176.54,-1321.29" style="stroke: rgb(73, 141, 158); stroke-width: 2px;"/>
<polygon fill="black" stroke="black" stroke-width="2" points="172.18,-1334.6 214.54,-1333.14 180.52,-1307.87 172.18,-1334.6" style="stroke: rgb(73, 141, 158); fill: rgb(73, 141, 158);"/>
<text xml:space="preserve" text-anchor="middle" x="15.41" y="-1079.8" font-family="Times,serif" font-size="14.00"> </text>
<path fill="none" stroke="black" stroke-width="2" d="M217.43,-799.16C112.23,-825.34 17.16,-894.8 17.16,-1066.6 17.16,-1215.75 88.82,-1287.77 176.54,-1321.29" class="hover-path" style="stroke: rgba(0, 0, 0, 0); stroke-width: 15px;"/></g>
<!-- 7&#45;&gt;7 -->
<g id="7:44_8 -&gt; 7:67_8" class="edge" edge-from="7:44_8" edge-to="7:67_8">

<path fill="none" stroke="black" stroke-width="2" d="M217.43,-797.48C112.23,-821.19 17.16,-884.53 17.16,-1041.2 17.16,-1177.06 88.66,-1242.74 176.25,-1273.25" style="stroke: rgb(73, 141, 158); stroke-width: 2px;"/>
<polygon fill="black" stroke="black" stroke-width="2" points="172.21,-1286.66 214.51,-1284.09 179.85,-1259.72 172.21,-1286.66" style="stroke: rgb(73, 141, 158); fill: rgb(73, 141, 158);"/>
<text xml:space="preserve" text-anchor="middle" x="15.41" y="-1079.8" font-family="Times,serif" font-size="14.00"> </text>
<path fill="none" stroke="black" stroke-width="2" d="M217.43,-797.48C112.23,-821.19 17.16,-884.53 17.16,-1041.2 17.16,-1177.06 88.66,-1242.74 176.25,-1273.25" class="hover-path" style="stroke: rgba(0, 0, 0, 0); stroke-width: 15px;"/></g>
<!-- 7&#45;&gt;7 -->
<g id="7:44_8 -&gt; 7:131_8" class="edge" edge-from="7:44_8" edge-to="7:131_8">

<path fill="none" stroke="black" stroke-width="2" d="M217.43,-795.8C112.23,-817.04 17.16,-874.26 17.16,-1015.8 17.16,-1138.4 88.5,-1197.74 175.95,-1225.23" style="stroke: rgb(73, 141, 158); stroke-width: 2px;"/>
<polygon fill="black" stroke="black" stroke-width="2" points="172.27,-1238.74 214.49,-1235.05 179.19,-1211.6 172.27,-1238.74" style="stroke: rgb(73, 141, 158); fill: rgb(73, 141, 158);"/>
<text xml:space="preserve" text-anchor="middle" x="15.41" y="-1079.8" font-family="Times,serif" font-size="14.00"> </text>
<path fill="none" stroke="black" stroke-width="2" d="M217.43,-795.8C112.23,-817.04 17.16,-874.26 17.16,-1015.8 17.16,-1138.4 88.5,-1197.74 175.95,-1225.23" class="hover-path" style="stroke: rgba(0, 0, 0, 0); stroke-width: 15px;"/></g>
<!-- 7&#45;&gt;7 -->
<g id="7:44_8 -&gt; 7:52_8" class="edge" edge-from="7:44_8" edge-to="7:52_8">

<path fill="none" stroke="black" stroke-width="2" d="M217.43,-794.13C112.23,-812.89 17.16,-863.99 17.16,-990.4 17.16,-1099.77 88.33,-1152.77 175.66,-1177.22" style="stroke: rgb(73, 141, 158); stroke-width: 2px;"/>
<polygon fill="black" stroke="black" stroke-width="2" points="172.37,-1190.83 214.47,-1186.01 178.55,-1163.52 172.37,-1190.83" style="stroke: rgb(73, 141, 158); fill: rgb(73, 141, 158);"/>
<text xml:space="preserve" text-anchor="middle" x="15.41" y="-1079.8" font-family="Times,serif" font-size="14.00"> </text>
<path fill="none" stroke="black" stroke-width="2" d="M217.43,-794.13C112.23,-812.89 17.16,-863.99 17.16,-990.4 17.16,-1099.77 88.33,-1152.77 175.66,-1177.22" class="hover-path" style="stroke: rgba(0, 0, 0, 0); stroke-width: 15px;"/></g>
<!-- 7&#45;&gt;7 -->
<g id="7:44_8 -&gt; 7:58_8" class="edge" edge-from="7:44_8" edge-to="7:58_8">

<path fill="none" stroke="black" stroke-width="2" d="M217.43,-792.45C112.23,-808.73 17.16,-853.72 17.16,-965 17.16,-1061.17 88.17,-1107.83 175.36,-1129.24" style="stroke: rgb(73, 141, 158); stroke-width: 2px;"/>
<polygon fill="black" stroke="black" stroke-width="2" points="172.5,-1142.95 214.46,-1136.97 177.93,-1115.48 172.5,-1142.95" style="stroke: rgb(73, 141, 158); fill: rgb(73, 141, 158);"/>
<text xml:space="preserve" text-anchor="middle" x="15.41" y="-1079.8" font-family="Times,serif" font-size="14.00"> </text>
<path fill="none" stroke="black" stroke-width="2" d="M217.43,-792.45C112.23,-808.73 17.16,-853.72 17.16,-965 17.16,-1061.17 88.17,-1107.83 175.36,-1129.24" class="hover-path" style="stroke: rgba(0, 0, 0, 0); stroke-width: 15px;"/></g>
</g>
</svg>